<?xml version="1.0" encoding="UTF-8" standalone="no"?>
<!-- Created with Inkscape (http://www.inkscape.org/) -->

<svg
   height="297mm"
   id="svg5"
   inkscape:version="1.1.1 (3bf5ae0d25, 2021-09-20)"
   sodipodi:docname="jacubefull.svg"
   version="1.1"
   viewBox="0 0 210 297"
   width="210mm"
   xmlns:inkscape="http://www.inkscape.org/namespaces/inkscape"
   xmlns:sodipodi="http://sodipodi.sourceforge.net/DTD/sodipodi-0.dtd"
   xmlns="http://www.w3.org/2000/svg"
   xmlns:svg="http://www.w3.org/2000/svg">
  <defs
     id="defs28" />
  <sodipodi:namedview
     id="namedview26"
     pagecolor="#505050"
     bordercolor="#ffffff"
     borderopacity="1"
     inkscape:pageshadow="0"
     inkscape:pageopacity="0"
     inkscape:pagecheckerboard="1"
     inkscape:document-units="mm"
     showgrid="false"
     inkscape:zoom="0.76435185"
     inkscape:cx="397.06844"
     inkscape:cy="561.91399"
     inkscape:window-width="1920"
     inkscape:window-height="1017"
     inkscape:window-x="1912"
     inkscape:window-y="52"
     inkscape:window-maximized="1"
     inkscape:current-layer="layer1" />
  <g
     id="layer1"
     inkscape:groupmode="layer"
     inkscape:label="Layer 1">
    <g
       id="path32600"
       style="font-size:40px;white-space:pre;stroke:#000000"
       transform="matrix(1.0456808,0,0,1.0456808,295.94445,-1602.9065)" />
    <text
       id="text2164"
       style="fill-opacity:1;line-height:1.25;stroke:none;font-family:sans-serif;font-style:normal;font-weight:normal;font-size:40px;white-space:pre;shape-inside:url(#rect2166);fill:currentColor"
       transform="scale(0.26458333)"
       xml:space="preserve" />
    <g
       id="g40695-0-2-2-2"
       inkscape:export-filename="C:\Users\jleem\Downloads\jacube.png"
       inkscape:export-xdpi="96"
       inkscape:export-ydpi="96"
       style="fill:#ffffff;fill-opacity:1;stroke:none;stroke-width:2.8581;stroke-miterlimit:4;stroke-dasharray:none;stroke-opacity:1"
       transform="matrix(1.9539744,0,0,1.7850079,109.30825,-770.93438)">
      <g
         id="g1920-8-7-6"
         transform="translate(-0.45740159,3.9054494)"
         style="fill:#ffffff;fill-opacity:1">
        <path
           d="m -320.73047,2021.06 v 14.8437 q 0,2.5781 -0.0195,3.125 -0.11719,2.0313 -0.76172,3.2813 -1.36719,2.6172 -4.92187,2.6172 -1.89453,0 -3.00782,-0.6641 -1.13281,-0.6641 -1.13281,-1.7774 0,-0.6054 0.33203,-0.996 0.33203,-0.3907 0.85938,-0.3907 0.9375,0 1.26953,1.1328 l 0.27344,0.9375 q 0.41015,1.3282 1.73828,1.3282 0.68359,0 1.21094,-0.3711 0.54687,-0.3516 0.82031,-1.0352 0.21484,-0.5078 0.3125,-1.582 0.0976,-1.0742 0.0976,-2.8711 v -12.1875 q 0,-2.207 -0.70312,-3.1445 -0.68359,-0.9571 -2.32422,-0.9571 v -0.4883 z m -1.54297,-6.9727 q -0.76172,0 -1.26953,-0.4883 -0.50781,-0.4883 -0.50781,-1.2304 0,-0.7227 0.50781,-1.211 0.52735,-0.5078 1.26953,-0.5078 0.74219,0 1.25,0.5078 0.50782,0.4883 0.50782,1.211 0,0.7421 -0.50782,1.2304 -0.48828,0.4883 -1.25,0.4883 z"
           id="path33492-6-3-3-4"
           style="color:#000000;font-size:40px;-inkscape-font-specification:'Baskerville Old Face';white-space:pre;fill-opacity:1;stroke:none;stroke-width:2.73324;stroke-miterlimit:4;stroke-dasharray:none;stroke-opacity:1;fill:#ffffff"
           transform="matrix(1.0456808,0,0,1.0456808,295.94445,-1602.9065)" />
        <path
           d="m -322.27344,2010.1504 c -0.60818,0 -1.17942,0.2275 -1.61523,0.6465 -0.42738,0.4109 -0.66211,0.9733 -0.66211,1.5722 0,0.6088 1.14606,0.6224 1.57582,1.0357 0.42857,0.4121 0.50628,0.09 1.12093,0.09 0.61246,0 0.7612,0.8752 1.17825,0.4607 0.42768,-0.413 0.66015,-0.9787 0.66016,-1.586 0,-0.5967 -1.14942,-0.4967 -1.57387,-0.9073 -0.42418,-0.4217 -0.0773,-1.3114 -0.68395,-1.3114 z m 0,1 c 0.38076,0 0.64407,0.1089 0.89649,0.3613 h 0.004 l -0.46034,0.3295 c -2.58129,2.5049 0.81786,0.1574 0.81786,0.522 0,0.3807 -0.10619,0.6314 -0.35352,0.8692 h -0.004 -0.004 c -0.2336,0.2336 -0.49552,0.3418 -0.89649,0.3418 -0.40097,0 -0.67532,-0.1107 -0.92383,-0.3496 -0.24732,-0.2378 -0.35351,-0.4885 -0.35351,-0.8692 0,-0.3646 0.10381,-0.6114 0.35351,-0.8515 h 0.002 c 0.26714,-0.2573 0.2715,0.037 0.65225,0.037 z m 2.04297,9.3379 -0.5664,0.076 -6.39063,0.8593 v 1.4258 h 0.5 c 0.99652,0 1.5722,0.2639 1.91797,0.7481 h 0.002 0.004 c 0.35575,0.4743 0.60351,1.4274 0.60351,2.8457 v 12.1875 c 0,1.1889 -0.0329,2.135 -0.0957,2.8261 -0.0628,0.6903 -0.17087,1.1846 -0.27539,1.4317 h -0.002 l -0.002,0.01 c -0.15058,0.3764 -0.35252,0.6236 -0.625,0.7988 l -0.01,0.01 -0.008,0.01 c -0.26842,0.1889 -0.55858,0.2812 -0.92383,0.2812 -0.35937,0 -0.60284,-0.084 -0.79492,-0.2304 -0.19209,-0.1468 -0.35058,-0.3761 -0.46485,-0.7461 l -0.27148,-0.9297 c -0.12854,-0.4385 -0.32803,-0.8118 -0.63086,-1.082 -0.30283,-0.2702 -0.70595,-0.4102 -1.11914,-0.4102 -0.47505,0 -0.9343,0.2064 -1.24024,0.5664 -0.30391,0.3575 -0.45117,0.8253 -0.45117,1.3203 0,0.9104 0.5189,1.7026 1.37695,2.2071 4.9e-4,2e-4 0.001,-3e-4 0.002,0 8.5e-4,5e-4 10e-4,0 0.002,0 0.8489,0.5053 1.94,0.7324 3.25977,0.7324 2.49249,0 4.37143,-0.9843 5.36523,-2.8867 h 0.002 c 0.47459,-0.9205 0.73559,-2.0815 0.81641,-3.4825 v 0 -0.01 c 0.014,-0.3926 0.0195,-1.4226 0.0195,-3.1426 z m -1,1.1426 v 14.2734 c 0,1.711 -0.008,2.7549 -0.0195,3.0957 -0.0754,1.3075 -0.32225,2.3338 -0.70703,3.0801 -0.48631,0.9297 -1.25063,1.4918 -2.18555,1.8672 0.18169,-0.221 0.42044,-0.3856 0.53321,-0.666 0.18118,-0.4297 0.28229,-0.9862 0.3496,-1.7266 0.0673,-0.7412 0.0996,-1.709 0.0996,-2.916 v -12.1875 c 0,-1.5202 -0.22069,-2.662 -0.79882,-3.4375 -0.27829,-0.3887 -0.65862,-0.673 -1.11133,-0.8653 z m -8.15234,19.9687 c 0.2118,0 0.33277,0.049 0.45312,0.1563 0.12035,0.1073 0.24313,0.3005 0.33594,0.6171 l 0.27539,0.9395 v 0 c 0.10483,0.3395 0.33505,0.5675 0.53711,0.8203 -0.47036,-0.1011 -1.08026,-0.1094 -1.4043,-0.3027 h -0.002 -0.002 c -0.65005,-0.3811 -0.88477,-0.7731 -0.88477,-1.3457 0,-0.3122 0.0741,-0.5086 0.21289,-0.6718 0.13677,-0.161 0.25043,-0.2149 0.47852,-0.2149 z m 4.77929,2.9356 -0.0176,0.012 c 0.003,0 0.003,-0.01 0.006,-0.01 h 0.0117 z"
           id="path33494-7-6-27-4"
           sodipodi:nodetypes="ssssscscsccccscccsssccccccccscccsssccccccscccsssssccsccscccccsccccsssccccsscsccccscccccscc"
           style="color:#000000;font-size:40px;-inkscape-font-specification:'Baskerville Old Face';white-space:pre;fill-opacity:1;stroke:none;stroke-width:2.73324;stroke-miterlimit:4;stroke-dasharray:none;stroke-opacity:1;fill:#ffffff"
           transform="matrix(1.0456808,0,0,1.0456808,295.94445,-1602.9065)" />
        <path
           d="m -320.11911,2015.2898 c 0.32052,0.1479 0.39255,0.2701 1.0783,0.6287 0.55313,-0.2157 0.83907,-0.4957 0.53513,-1.1553 -0.14208,-0.308 -0.366,-0.8338 -0.90822,-1.1493 -0.0416,-0.4412 -0.005,-1.0993 -0.33096,-1.4479 -0.87179,-0.9314 -1.9209,-2.0542 -3.18751,-2.0519 -0.0158,0.01 -0.46459,-0.3245 -0.5392,-0.4275 -0.17312,-0.2389 -0.23951,-0.3959 -0.39707,-0.643 -0.20865,-0.328 -1.10028,-1.1417 -1.54362,-1.1757 -0.14729,-0.013 0.137,1.4722 0.1326,1.5287 -0.0451,0.5888 0.23142,0.9205 -0.88343,1.5754 -0.36875,0.1979 -0.6616,0.5651 -1.0118,0.8636 -0.46616,0.8068 -0.55761,1.3034 -1.16474,1.5102 -0.46826,0.1593 -1.3345,1.1482 -1.46659,1.1813 -0.0353,0.01 -0.36289,0.419 -0.30131,0.419 0.88869,-3e-4 1.70296,0.1693 2.52275,0.3513 0.23015,0.052 0.53635,0.2506 0.73283,0.3027 0.19013,0.05 0.93373,0.3371 1.11717,0.2203 0.79717,-0.5076 -1.1449,-1.7846 -0.82802,-1.9863 0.12151,-0.077 0.34275,-0.2422 0.46005,-0.2331 0.18451,0.014 0.4344,-0.1257 0.60263,-0.088 0.5953,0.1322 1.31431,0.2384 1.89634,0.5874 0.45035,0.2701 0.12087,0.4289 0.0884,0.8526 -0.003,0.041 -0.2433,0.3732 -0.16163,0.3529 0.1299,-0.033 0.3764,-0.3099 0.52909,-0.3823 0.28882,-0.1369 0.76264,-0.1909 0.99951,-0.2502 0.14923,-0.038 1.35808,0.3097 1.65437,0.4455 z"
           id="path36302-5-5-9-0"
           sodipodi:nodetypes="scsccccsccccsscccsscssssssss"
           style="font-size:40px;white-space:pre;fill-opacity:1;stroke:none;stroke-width:2.73324;stroke-linecap:butt;stroke-linejoin:miter;stroke-miterlimit:4;stroke-dasharray:none;stroke-opacity:1;fill:#ffffff"
           transform="matrix(1.0456808,0,0,1.0456808,295.94445,-1602.9065)" />
        <g
           id="path32602-5-2-15-2"
           style="font-size:40px;white-space:pre;fill:#ffffff;fill-opacity:1;stroke:none;stroke-width:2.73324;stroke-miterlimit:4;stroke-dasharray:none;stroke-opacity:1"
           transform="matrix(1.0456808,0,0,1.0456808,294.88611,-1602.9065)">
          <path
             d="m -298.74527,2028.939 -1.87102,6.6139 c -0.46875,1.3672 -1.7548,2.7922 -3.43449,2.7922 -0.92448,0 -1.69271,-0.2279 -2.30469,-0.6836 -0.40365,-0.2995 -0.82031,-0.8203 -1.25,-1.5625 -0.87239,0.7813 -1.52994,1.2956 -1.97265,1.543 -0.84636,0.4687 -1.82943,0.7031 -2.94922,0.7031 -1.43229,0 -2.57162,-0.345 -3.41797,-1.0351 -0.83333,-0.6901 -1.25,-1.6211 -1.25,-2.793 0,-1.0807 0.34505,-1.9857 1.03515,-2.7148 0.39063,-0.4037 0.83985,-0.7227 1.34766,-0.9571 0.50781,-0.2474 1.24349,-0.4948 2.20703,-0.7422 1.13281,-0.2865 1.96615,-0.5273 2.5,-0.7226 0.54687,-0.1953 1.0026,-0.4297 1.36719,-0.7031 0.41667,-0.2995 0.70312,-0.6511 0.85937,-1.0547 0.15625,-0.4037 0.23438,-0.9636 0.23438,-1.6797 0,-1.5235 -0.28646,-2.6368 -0.85938,-3.3399 -0.26041,-0.3255 -0.59895,-0.5859 -1.01562,-0.7812 -0.40365,-0.1953 -0.82682,-0.293 -1.26953,-0.293 -0.53385,0 -1.00911,0.1367 -1.42578,0.4102 -0.41667,0.2734 -0.72917,0.651 -0.9375,1.1328 l -0.48828,1.1328 c -0.26042,0.612 -0.72917,0.918 -1.40625,0.918 -0.44271,0 -0.81381,-0.1432 -1.11329,-0.4297 -0.29947,-0.2995 -0.44921,-0.6706 -0.44921,-1.1133 0,-0.6641 0.46875,-1.224 1.40625,-1.6797 0.50781,-0.2344 1.13281,-0.4232 1.875,-0.5664 0.75521,-0.1563 1.49088,-0.2344 2.20703,-0.2344 0.80729,0 1.64713,0.1042 2.51953,0.3125 0.87239,0.2083 1.60156,0.4753 2.1875,0.8008 0.84635,0.4818 1.3737,1.1068 1.58203,1.875 0.10417,0.3906 0.15625,1.0482 0.15625,1.9727 v 7.2265 c 0,1.224 0.0521,2.0573 0.15625,2.5 0.22135,0.9245 0.80248,1.6656 1.60156,1.3867 0.42483,-0.1483 1.13981,-0.6224 1.573,-1.6764 1.69602,-8.4471 1.69407,-9.3267 2.5997,-6.5578 z m -8.8602,-0.5353 c -0.70313,0.5859 -1.47787,1.1003 -2.32422,1.543 -0.95052,0.5078 -1.60807,0.8919 -1.97265,1.1523 -0.36459,0.2605 -0.69662,0.573 -0.9961,0.9375 -0.61198,0.7552 -0.91797,1.6341 -0.91797,2.6367 0,0.8594 0.23438,1.5691 0.70313,2.129 0.48177,0.5599 1.08724,0.8398 1.81641,0.8398 0.63802,0 1.23698,-0.1953 1.79687,-0.5859 0.57292,-0.4037 1.00261,-0.9375 1.28906,-1.6016 0.40365,-0.8724 0.60547,-2.1354 0.60547,-3.7891 z"
             id="path33498-8-00-9-0"
             style="color:#000000;-inkscape-font-specification:'Baskerville Old Face';fill-opacity:1;stroke:none;stroke-width:2.73324;stroke-miterlimit:4;stroke-dasharray:none;stroke-opacity:1;fill:#ffffff" />
          <path
             d="m -311.12109,2020.5996 c -0.75188,0 -1.52138,0.082 -2.30664,0.2442 -0.76826,0.1486 -1.42924,0.3453 -1.98438,0.6015 h -0.006 -0.004 c -1.02339,0.4975 -1.6875,1.2315 -1.6875,2.1309 0,0.5554 0.20914,1.0802 0.5957,1.4668 h 0.004 0.004 c 0.38843,0.3716 0.90845,0.5683 1.45899,0.5683 0.82674,0 1.54313,-0.4666 1.86523,-1.2207 h 0.002 l 0.48633,-1.1309 c 0.17381,-0.4019 0.41596,-0.6916 0.75195,-0.9121 0.33476,-0.2197 0.70385,-0.3281 1.15235,-0.3281 0.36915,0 0.71356,0.078 1.05273,0.2422 h 0.002 0.002 c 0.35626,0.167 0.62827,0.3786 0.83789,0.6406 h 0.002 0.002 c 0.4612,0.566 0.74609,1.5645 0.74609,3.0254 0,0.6797 -0.0808,1.1871 -0.20117,1.498 -0.11727,0.3029 -0.32933,0.5754 -0.6836,0.8301 h -0.006 -0.004 c -0.31434,0.2358 -0.72398,0.4506 -1.23438,0.6329 h -0.002 -0.002 c -0.50072,0.1831 -1.32642,0.4225 -2.45118,0.707 v 0 h -0.002 c -0.98093,0.2519 -1.73824,0.5026 -2.29883,0.7754 -5.7e-4,3e-4 -10e-4,0 -0.002,0 -0.55844,0.2593 -1.05865,0.6146 -1.48828,1.0586 h -0.002 -0.002 c -0.77489,0.8187 -1.17187,1.8715 -1.17187,3.0586 0,1.2904 0.49123,2.3989 1.43164,3.1777 v 0 h 0.002 c 0.95342,0.7774 2.2218,1.1484 3.73438,1.1484 1.18956,0 2.2633,-0.2517 3.1914,-0.7656 v 0 h 0.002 c 0.41351,-0.2311 1.01257,-0.7365 1.65234,-1.2871 0.33336,0.4974 0.6606,0.9994 1.02734,1.2715 0.7087,0.5277 1.59687,0.7832 2.60352,0.7832 1.96248,0 3.38303,-1.5991 3.9082,-3.1309 l 0.004,-0.014 1.91601,-6.7735 -0.0469,-0.1445 c -0.11441,-0.3498 -0.21652,-0.6462 -0.31445,-0.8906 -0.0979,-0.2444 -0.1746,-0.4316 -0.33594,-0.6153 -0.0807,-0.092 -0.20053,-0.2025 -0.40039,-0.2382 -0.19987,-0.036 -0.41467,0.055 -0.52735,0.1543 -0.22536,0.1976 -0.28157,0.3924 -0.37304,0.6543 -0.3625,1.0378 -1.04376,-1.1979 -1.87499,2.9472 0,0 0.2637,4.4986 -0.98634,5.9063 -0.23384,0.082 -0.33012,0.041 -0.50391,-0.1289 -0.17348,-0.1692 -0.35249,-0.506 -0.44726,-0.9004 v 0 c -0.0805,-0.3432 -0.14258,-1.174 -0.14258,-2.3828 v -7.2266 c 0,-0.9432 -0.0444,-1.616 -0.17383,-2.1015 v 0 c -0.24619,-0.9078 -0.8861,-1.6501 -1.81641,-2.1797 h -0.004 -0.002 c -0.63841,-0.3547 -1.40941,-0.6335 -2.31446,-0.8496 -0.90627,-0.2164 -1.78445,-0.3262 -2.63476,-0.3262 z m -1.57032,1.166 c -0.37265,0.3072 -0.72096,0.6473 -0.91992,1.1074 l -0.48828,1.1348 h -0.002 c -0.19929,0.4684 -0.41888,0.6152 -0.94531,0.6152 -0.33238,0 -0.5526,-0.091 -0.76172,-0.289 -0.20896,-0.2109 -0.30079,-0.4265 -0.30078,-0.7539 0,-0.4283 0.27397,-0.8152 1.12304,-1.2285 10e-4,-6e-4 8.8e-4,0 0.002,0 0.45768,-0.2102 1.04282,-0.3886 1.75195,-0.5254 h 0.002 0.004 c 0.18414,-0.038 0.35396,-0.028 0.53515,-0.057 z m 4.1543,0.1992 c 0.73981,0.191 1.38885,0.4123 1.875,0.6817 0.76239,0.434 1.17719,0.9436 1.34766,1.5723 0.0787,0.2961 0.13867,0.937 0.13867,1.8417 v 7.2266 c 0,1.2382 0.0422,2.0706 0.16992,2.6133 v 0 c 0.1267,0.5292 0.34882,1.0242 0.7207,1.3868 0.24378,0.2376 0.63988,0.2032 1.00391,0.2324 -0.26505,0.097 -0.47883,0.3242 -0.76953,0.3242 -0.84231,0 -1.4906,-0.2023 -2.00586,-0.5859 -0.31313,-0.2324 -0.70495,-0.7035 -1.11523,-1.4121 l -0.3086,-0.5313 -0.25781,0.2305 c 0.42632,-0.9724 0.63281,-2.2362 0.63281,-3.8809 v -4.3301 l -0.27148,0.2266 c 0.14175,-0.4585 0.23242,-0.9639 0.23242,-1.6191 0,-1.5854 -0.28878,-2.8142 -0.97266,-3.6543 -0.10967,-0.1367 -0.2879,-0.2076 -0.41992,-0.3243 z m 9.16016,6.6836 c 0.0355,0.101 0.0678,0.1876 0.10742,0.3067 l -0.69727,2.4648 c 0.17612,-0.8353 0.47586,-2.3934 0.58985,-2.7715 z m -8.72852,0.6836 v 2.334 c 0,1.613 -0.2055,2.815 -0.55859,3.5781 l -0.004,0.01 -0.002,0.01 c -0.25302,0.5866 -0.61769,1.0386 -1.11719,1.3906 -0.48623,0.3388 -0.97441,0.4961 -1.50976,0.4961 -0.59956,0 -1.03409,-0.2015 -1.4336,-0.6641 -0.38716,-0.4631 -0.58594,-1.0369 -0.58594,-1.8047 0,-0.8999 0.26197,-1.6497 0.80469,-2.3203 h 0.002 c 0.2729,-0.3318 0.57165,-0.6122 0.89844,-0.8457 0.3218,-0.2299 0.97443,-0.6132 1.91406,-1.1153 h 0.004 c 0.57688,-0.302 1.07352,-0.6891 1.58789,-1.0567 z m -3.45312,0.9883 c -0.17872,0.1103 -0.50743,0.2802 -0.63477,0.3711 -0.40165,0.287 -0.76623,0.6311 -1.0918,1.0274 v 0 h -0.002 c -0.68012,0.8392 -1.0293,1.8468 -1.0293,2.9511 0,0.9503 0.27073,1.7928 0.82032,2.4492 h 0.002 0.002 c 0.26704,0.3103 0.58897,0.5422 0.9375,0.7129 -1.3364,0 -2.34062,-0.3218 -3.07422,-0.9199 -0.72381,-0.601 -1.0664,-1.3527 -1.0664,-2.4043 0,-0.9722 0.29186,-1.7286 0.89453,-2.3672 h 0.002 c 6.5e-4,-6e-4 10e-4,0 0.002,0 0.348,-0.3587 0.74208,-0.6394 1.19335,-0.8477 h 0.006 0.004 c 0.45449,-0.2214 1.16735,-0.4645 2.11133,-0.707 0.4135,-0.1046 0.58782,-0.1747 0.92383,-0.2676 z m 3.80664,5.332 -0.006,0.012 c 6.5e-4,0 -6.5e-4,0 0,-0.01 10e-4,0 0.005,0 0.006,-0.01 z"
             id="path33500-2-6-7-4"
             sodipodi:nodetypes="cccccscccscccssccccccssccccccsccsccccssccssccccsccccssccscccsssssscccsccccccscsccccccccccssssscsccccsccsccccccccsccccscsccsccccccsccscccccscccccccccccccc"
             style="color:#000000;-inkscape-font-specification:'Baskerville Old Face';fill-opacity:1;stroke:none;stroke-width:2.73324;stroke-miterlimit:4;stroke-dasharray:none;stroke-opacity:1;fill:#ffffff" />
        </g>
        <g
           id="path32604-8-6-8-6"
           style="font-size:40px;white-space:pre;fill:#ffffff;fill-opacity:1;stroke:none;stroke-width:2.73324;stroke-miterlimit:4;stroke-dasharray:none;stroke-opacity:1"
           transform="matrix(1.0456808,0,0,1.0456808,294.88611,-1602.9065)">
          <path
             d="m -288.30669,2034.3921 0.39063,0.1367 q -0.6836,2.0703 -2.08985,2.9883 -1.40625,0.9179 -3.86718,0.9179 -3.94532,0 -6.19141,-2.3437 -2.1875,-2.3047 -2.1875,-5.8203 0,-1.7188 0.60547,-3.3985 0.60547,-1.6797 1.66016,-2.8711 1.1914,-1.3672 2.91015,-2.0898 1.73828,-0.7227 3.78906,-0.7227 2.83204,0 4.4336,1.2696 0.97656,0.7812 0.97656,1.7187 0,0.625 -0.41016,1.0547 -0.41015,0.4102 -0.99609,0.4102 -1.26953,0 -1.875,-1.8555 -0.27344,-0.8594 -0.44922,-1.1719 -0.15625,-0.3125 -0.46875,-0.5469 -0.60547,-0.4492 -1.48437,-0.4492 -1.15235,0 -2.12891,0.6445 -0.85937,0.5665 -1.46484,1.4258 -0.58594,0.8399 -1.03516,2.1289 -0.68359,1.9727 -0.68359,3.8672 0,1.7383 0.625,3.3985 0.625,1.6601 1.69922,2.7734 1.67968,1.7578 3.94531,1.7578 1.875,0 3.10547,-1.1914 0.625,-0.625 1.1914,-2.0312 z"
             id="path33504-9-69-78-4"
             style="color:#000000;-inkscape-font-specification:'Baskerville Old Face';fill-opacity:1;stroke:none;stroke-width:2.73324;stroke-miterlimit:4;stroke-dasharray:none;stroke-opacity:1;fill:#ffffff" />
          <path
             d="m -293.16733,2020.5097 c -1.42592,0 -2.75725,0.2512 -3.98046,0.7598 h -0.002 c -1.21164,0.5094 -2.24991,1.2543 -3.09375,2.2227 -0.74761,0.8454 -1.33216,1.8593 -1.7539,3.0293 -0.4221,1.171 -0.63477,2.3638 -0.63477,3.5683 0,2.4475 0.7785,4.5356 2.32422,6.1641 h 0.002 v 0 c 1.59858,1.668 3.82352,2.498 6.55274,2.498 1.70278,0 3.09133,-0.3151 4.14062,-1 1.05052,-0.6858 1.81018,-1.7938 2.29102,-3.25 l 0.15429,-0.4668 -1.30468,-0.457 -0.17774,0.4433 c -0.36264,0.9004 -0.7431,1.5234 -1.08008,1.8614 -0.7285,0.7038 -1.61151,1.0488 -2.7539,1.0488 -1.38111,0 -2.54178,-0.5128 -3.58399,-1.6035 v 0 h -0.002 c -0.66356,-0.6877 -1.19347,-1.5487 -1.58984,-2.6015 -0.3964,-1.053 -0.59375,-2.1238 -0.59375,-3.2227 0,-1.2029 0.21673,-2.4348 0.65625,-3.7031 0.28801,-0.8265 0.61492,-1.4954 0.9707,-2.0059 h 0.002 c 0.36896,-0.5231 0.80988,-0.952 1.33008,-1.295 0.57558,-0.3798 1.1785,-0.5605 1.85352,-0.5605 0.50075,0 0.87487,0.1191 1.18554,0.3496 0.15353,0.1157 0.25379,0.2361 0.32032,0.3691 l 0.006,0.012 0.006,0.01 c 0.0755,0.1342 0.22999,0.518 0.40821,1.0782 v 0 h 0.002 c 0.21781,0.6674 0.50183,1.2031 0.89453,1.5918 0.39271,0.3886 0.91011,0.6093 1.45508,0.6093 0.5073,0 0.992,-0.199 1.34961,-0.5566 h 0.004 l 0.004,-0.01 c 0.35704,-0.374 0.54883,-0.8724 0.54883,-1.3984 0,-0.7986 -0.43684,-1.5276 -1.16406,-2.1094 h -0.002 c -1.18013,-0.9356 -2.7814,-1.377 -4.74414,-1.377 z m 1.71094,1.2129 c 0.95537,0.1817 1.79803,0.4624 2.41016,0.9473 0.57485,0.4598 0.78906,0.8767 0.78906,1.3281 0,0.3048 -0.083,0.5058 -0.26953,0.7031 -0.18741,0.1856 -0.3652,0.2617 -0.63672,0.2617 -0.30138,0 -0.51966,-0.09 -0.75195,-0.3203 -0.23155,-0.2291 -0.46097,-0.6209 -0.64649,-1.1875 v 0 c -3.6e-4,0 -0.002,-9e-4 -0.002,0 -0.18347,-0.5762 -0.32608,-0.9671 -0.48242,-1.248 -0.0951,-0.1878 -0.25863,-0.3298 -0.41016,-0.4805 z m -4.83984,0.3809 c -0.41206,0.3396 -0.83196,0.6708 -1.14649,1.1171 h -0.002 c -0.42499,0.6092 -0.78705,1.3587 -1.09766,2.25 v 0 c -0.47194,1.3619 -0.71093,2.7081 -0.71093,4.0312 0,1.2188 0.21931,2.4136 0.65625,3.5742 0.43696,1.1607 1.03986,2.1467 1.80859,2.9434 0.94037,0.9836 2.0839,1.4834 3.31055,1.7031 -0.10111,0 -0.17088,0.029 -0.27539,0.029 -2.53051,0 -4.43203,-0.7334 -5.82813,-2.1894 -1.37094,-1.4444 -2.05078,-3.2346 -2.05078,-5.4747 0,-1.0871 0.19098,-2.1599 0.57617,-3.2285 0.38503,-1.0681 0.90715,-1.9684 1.56446,-2.7109 h 0.002 c 0.74434,-0.8541 1.64526,-1.503 2.72461,-1.957 0.14265,-0.059 0.32268,-0.038 0.46875,-0.09 z"
             id="path33506-0-0-35-9"
             style="color:#000000;-inkscape-font-specification:'Baskerville Old Face';fill-opacity:1;stroke:none;stroke-width:2.73324;stroke-miterlimit:4;stroke-dasharray:none;stroke-opacity:1;fill:#ffffff" />
        </g>
        <g
           id="path32606-9-6-5-3"
           style="font-size:40px;white-space:pre;fill:#ffffff;fill-opacity:1;stroke:none;stroke-width:2.73324;stroke-miterlimit:4;stroke-dasharray:none;stroke-opacity:1"
           transform="matrix(1.0456808,0,0,1.0456808,294.88611,-1602.9065)">
          <path
             d="m -273.62829,2038.3256 q -0.2539,-1.1719 -0.2539,-2.4024 -2.44141,2.4219 -5.78125,2.4219 -2.44141,0 -3.92578,-1.1914 -1.44532,-1.1719 -1.44532,-3.3203 v -6.7969 l -0.0195,-1.4843 q 0,-1.3282 -0.15625,-1.9336 -0.15625,-0.6055 -0.58594,-1.0352 -0.5664,-0.5273 -2.03125,-0.7812 v -0.4102 h 5.72266 v 9.9023 q 0,2.0899 0.13672,3.1055 0.15625,0.9961 0.54687,1.6406 0.42969,0.6641 1.23047,1.0547 0.80078,0.3711 1.79688,0.3711 1.09375,0 2.05078,-0.4297 0.95703,-0.4297 1.50391,-1.1718 0.5664,-0.7618 0.74218,-1.7579 0.19532,-0.9961 0.19532,-3.2812 v -3.8281 l -0.0195,-1.4453 q 0,-1.3282 -0.15625,-1.9336 -0.13671,-0.6055 -0.58593,-1.0352 -0.54688,-0.5273 -2.03125,-0.7812 v -0.4102 h 5.72265 v 10.6055 q 0,2.0117 0.0977,2.832 0.11719,0.8008 0.42969,1.3086 0.35156,0.5469 0.82031,0.8008 0.46875,0.2343 1.34766,0.2929 v 0.3907 z"
             id="path33510-5-6-6-6"
             style="color:#000000;-inkscape-font-specification:'Baskerville Old Face';fill-opacity:1;stroke:none;stroke-width:2.73324;stroke-miterlimit:4;stroke-dasharray:none;stroke-opacity:1;fill:#ffffff" />
          <path
             d="m -287.31541,2021.4434 v 0.3768 l 1.02839,0.411 c 0.9247,0.1603 0.90126,0.4826 1.15325,0.7139 0.22129,0.2234 0.36835,0.4779 0.45118,0.7988 0.082,0.318 0.14062,0.9428 0.14062,1.8086 v 0 l 0.0195,1.4844 v 6.7949 c 0,1.5444 0.55121,2.8336 1.63086,3.709 h 0.002 c 1.09393,0.878 2.52934,1.3027 4.23828,1.3027 2.03198,0 3.80982,-0.7778 5.37304,-2.0527 0.04,0.5502 -0.53493,0.5119 -0.4193,1.0455 l 0.16125,1.0742 0.98466,-0.091 6.85331,0.096 0.12805,-9.0138 c 0,0 -0.37225,5.4264 -1.47038,6.3405 -1.09813,0.914 -1.12252,0.3558 -1.33909,0.2489 -0.22261,-0.1221 -0.43304,-0.3199 -0.62891,-0.623 -0.15942,-0.2608 -0.28647,-0.6279 -0.35742,-1.1074 -0.0592,-0.5 -0.0937,-1.4354 -0.0937,-2.7657 l -0.0477,-10.6076 -6.59026,0.074 -0.0424,0.3576 1.3057,0.4301 c 0.94294,0.1613 0.60479,0.4684 0.83552,0.6909 h 0.002 v 0 c 0.23302,0.2229 0.37254,0.4695 0.44336,0.7832 l 0.002,0.01 0.002,0.01 c 0.082,0.318 0.14062,0.9428 0.14062,1.8086 v 0 l 0.0195,1.4453 v 3.8262 c 0,1.5091 -0.0692,2.5903 -0.18555,3.1836 l -0.002,0.01 v 0 c -0.10501,0.5951 -0.32028,1.1029 -0.6504,1.5469 h -0.002 v 0 c -0.30929,0.4197 -0.73427,0.7547 -1.30664,1.0117 -0.57309,0.2573 -1.18201,0.3867 -1.8457,0.3867 -0.60127,0 -1.1223,-0.1125 -1.58399,-0.3262 h -0.002 c -0.4575,-0.2249 -0.78373,-0.511 -1.01562,-0.8672 -0.21404,-0.3553 -0.38006,-0.8347 -0.47657,-1.4453 -0.0848,-0.6324 -0.13281,-1.823 -0.13281,-3.2027 v -9.7456 z m 2.05469,0.4492 h 3.66797 v 9.4023 c 0,1.4042 0.0434,2.4499 0.14063,3.1719 l 0.002,0.01 v 0 c 0.11149,0.7107 0.309,1.3202 0.61328,1.8222 l 0.004,0.01 0.004,0.01 c 0.33913,0.5241 0.82911,0.9385 1.43164,1.2324 h 0.004 0.004 c 0.33052,0.1532 0.72671,0.1599 1.0957,0.2285 -0.12623,0.01 -0.22876,0.068 -0.35742,0.068 -1.54512,0 -2.72633,-0.3706 -3.61133,-1.0801 h -0.002 c -0.84593,-0.687 -1.25782,-1.6107 -1.25782,-2.9297 v -6.8008 l -0.0195,-1.4805 c 0,-0.905 -0.0456,-1.5693 -0.17187,-2.0586 -0.12473,-0.4833 -0.36874,-0.9156 -0.7168,-1.2636 l -0.006,-0.01 -0.008,-0.01 c -0.18063,-0.1682 -0.57084,-0.204 -0.81641,-0.3242 z m 11.12891,0 h 3.67187 v 10.1054 c 0,1.3493 0.0308,2.2961 0.10157,2.8907 v 0.01 l 0.002,0.01 c 0.0851,0.5819 0.24285,1.0834 0.49805,1.4981 h 0.002 0.004 c 0.25718,0.4001 0.5812,0.7075 0.95508,0.9238 l -3.27929,0.4317 c -0.10373,-0.6035 -0.19336,-1.2103 -0.19336,-1.8399 v -1.2011 l -0.77149,0.7656 c 0.21288,-0.4147 0.46164,-0.8105 0.54688,-1.291 0.14356,-0.735 0.20508,-1.8361 0.20508,-3.3711 v -3.8321 l -0.0195,-1.4414 c 0,-0.9016 -0.0467,-1.562 -0.17187,-2.0507 -0.11224,-0.4909 -0.36041,-0.931 -0.72461,-1.2793 -0.17965,-0.173 -0.57809,-0.2085 -0.82617,-0.3301 z"
             id="path33512-0-3-3-8"
             sodipodi:nodetypes="ccccssccsccscccccczcccsccccccscccsccsscsccsssccccsccccsccscccccccsccsccscccccccsccccccccscccscccccc"
             style="color:#000000;-inkscape-font-specification:'Baskerville Old Face';fill-opacity:1;stroke:none;stroke-width:2.73324;stroke-miterlimit:4;stroke-dasharray:none;stroke-opacity:1;fill:#ffffff" />
        </g>
        <g
           id="path32608-6-6-00-4"
           style="font-size:40px;white-space:pre;fill:#ffffff;fill-opacity:1;stroke:none;stroke-width:2.73324;stroke-miterlimit:4;stroke-dasharray:none;stroke-opacity:1"
           transform="matrix(1.0456808,0,0,1.0456808,289.47006,-1602.9065)">
          <path
             d="m -257.97656,2023.5404 q 0.82031,-1.0156 1.5625,-1.5039 1.5039,-0.957 3.59375,-0.957 2.96875,0 5.17578,1.8945 2.73437,2.3242 2.73437,6.5625 0,4.2383 -2.61718,6.6797 -2.26563,2.1289 -5.80078,2.1289 -1.85547,0 -3.14454,-0.5078 l -1.09375,-0.4492 q -0.44921,-0.1758 -0.80078,-0.1758 -0.99609,0 -1.75781,1.6211 h -0.78125 v -22.9102 q 0,-2.1875 -0.70312,-3.125 -0.6836,-0.957 -2.32422,-0.957 v -0.4687 l 5.95703,-0.8203 z m 0,5.918 q 0,2.0898 0.23437,3.8477 0.23438,1.7578 0.60547,2.5586 0.44922,0.957 1.32813,1.5039 0.89843,0.5468 2.03125,0.5468 2.38281,0 3.92578,-2.2656 1.5625,-2.2656 1.5625,-5.7617 0,-1.8359 -0.50781,-3.4766 -0.50782,-1.6601 -1.44532,-2.8125 -0.74218,-0.957 -1.64062,-1.4453 -0.89844,-0.5078 -1.83594,-0.5078 -1.13281,0 -2.10937,0.7031 -0.97657,0.6836 -1.44532,1.7969 -0.70312,1.6406 -0.70312,5.3125 z"
             id="path33516-9-7-7-3"
             style="color:#000000;-inkscape-font-specification:'Baskerville Old Face';fill-opacity:1;stroke:none;stroke-width:2.73324;stroke-miterlimit:4;stroke-dasharray:none;stroke-opacity:1;fill:#ffffff" />
          <path
             d="m -257.47656,2009.9785 -6.95703,0.959 v 1.4043 h 0.5 c 0.99652,0 1.5722,0.262 1.91797,0.7461 l 0.002,0.01 h 0.004 c 0.35675,0.4756 0.60352,1.4214 0.60352,2.8261 l 0.18156,22.9654 1.5167,-0.08 0.27969,-0.3234 c 0.23606,-0.5024 0.23965,-0.2948 0.46342,-0.5011 0.22376,-0.2064 0.40124,-0.2715 0.59765,-0.2715 0.14913,0 0.35758,0.04 0.61133,0.1387 h 0.002 c 0.002,9e-4 0.003,9e-4 0.006,0 l 1.08789,0.4473 h 0.004 c 0.93549,0.3686 2.04553,0.543 3.32813,0.543 2.45713,0 4.53758,-0.7575 6.14257,-2.2656 1.84951,-1.726 2.77539,-4.1152 2.77539,-7.043 0,-2.933 -0.97297,-5.2968 -2.91015,-6.9433 -1.55516,-1.3345 -3.41507,-2.0137 -5.5,-2.0137 -1.46956,0 -2.77023,0.3408 -3.86133,1.0351 h -0.004 -0.004 c -0.26181,0.1723 -0.52554,0.5087 -0.78711,0.7559 z m -1,1.1465 v 13.8301 l 0.71289,-0.8828 c -0.49213,1.2162 -0.71289,2.9738 -0.71289,5.3867 0,1.4119 0.0786,2.7164 0.23828,3.914 0.15951,1.1963 0.35925,2.0772 0.64844,2.7012 v 0 0 c 0.23471,0.5001 0.65921,0.8357 1.05664,1.1934 l -0.84766,-0.3477 h -0.004 c -0.34069,-0.1334 -0.6647,-0.209 -0.98242,-0.209 -0.46765,0 -0.91517,0.2031 -1.27734,0.5371 -0.28635,0.2641 -0.51291,0.6666 -0.73828,1.084 h -0.0234 v -22.4102 c 0,-1.5077 -0.22169,-2.6437 -0.79883,-3.4179 -0.27444,-0.3833 -0.65134,-0.6613 -1.0957,-0.8536 z m 6.92187,10.668 c 1.31793,0.2154 2.53338,0.6587 3.58399,1.5605 h 0.002 v 0 c 1.70864,1.4523 2.55859,3.4636 2.55859,6.1816 0,2.7226 -0.81973,4.7834 -2.45898,6.3125 v 0 c -0.88503,0.8316 -1.97696,1.31 -3.17578,1.6211 0.58529,-0.4051 1.14837,-0.8685 1.60547,-1.5391 1.1099,-1.6094 1.65039,-3.6397 1.65039,-6.0449 0,-1.2694 -0.17556,-2.4795 -0.5293,-3.6231 v 0 c -0.35303,-1.1534 -0.86172,-2.1476 -1.5293,-2.9707 h -0.002 c -0.50261,-0.6475 -1.0771,-1.1372 -1.70508,-1.498 z m -2.16406,0.3535 c 0.53472,0 1.05574,0.1415 1.58984,0.4433 h 0.004 0.004 c 0.5293,0.2876 1.02422,0.7191 1.48437,1.3125 h 0.004 0.002 c 0.57872,0.7113 1.03263,1.5891 1.35547,2.6445 0.32296,1.0435 0.48633,2.1522 0.48633,3.3301 0,2.2562 -0.50119,4.0651 -1.47461,5.4765 v 0 h -0.002 c -0.96124,1.4115 -2.08165,2.0469 -3.51172,2.0469 -0.67319,0 -1.24929,-0.1581 -1.76758,-0.4726 h -0.002 c -0.50563,-0.3152 -0.87543,-0.7311 -1.13672,-1.2871 v 0 c -0.20544,-0.4439 -0.40962,-1.2655 -0.5625,-2.4121 -0.15282,-1.1462 -0.23047,-2.4067 -0.23047,-3.7812 0,-2.416 0.24656,-4.1457 0.66211,-5.1152 h 0.002 v 0 c 0.27851,-0.6614 0.69412,-1.1778 1.27148,-1.582 h 0.002 0.004 c 0.57665,-0.4152 1.16465,-0.6074 1.81641,-0.6074 z"
             id="path33518-3-19-49-7"
             sodipodi:nodetypes="cccscccscccsscccccscscsccccccccssscscccssccsccccccssssccsssccccccccccccssccsccssssccsccccc"
             style="color:#000000;-inkscape-font-specification:'Baskerville Old Face';fill-opacity:1;stroke:none;stroke-width:2.73324;stroke-miterlimit:4;stroke-dasharray:none;stroke-opacity:1;fill:#ffffff" />
        </g>
        <g
           id="path32610-7-9-4-7"
           style="font-size:40px;white-space:pre;fill:#ffffff;fill-opacity:1;stroke:none;stroke-width:2.73324;stroke-miterlimit:4;stroke-dasharray:none;stroke-opacity:1"
           transform="matrix(1.0456808,0,0,1.0456808,283.74074,-1602.9065)">
          <path
             d="m -239.07031,2027.3686 q -0.0781,0.957 -0.0781,1.3867 0,1.6992 0.48828,3.3203 0.50782,1.6211 1.36719,2.6953 0.87891,1.0938 2.16797,1.7188 1.30859,0.625 2.73438,0.625 1.05468,0 1.99218,-0.3516 0.95703,-0.3516 1.58203,-0.9766 0.70313,-0.6836 1.21094,-2.1875 l 0.39063,0.1367 q -0.50782,2.2852 -2.1875,3.4571 -1.66016,1.1523 -4.4336,1.1523 -2.40234,0 -4.12109,-0.7617 -1.71875,-0.7617 -2.91016,-2.3437 -1.66015,-2.2071 -1.66015,-5.4297 0,-4.3946 3.14453,-6.8946 2.28515,-1.8164 5.21484,-1.8164 1.5625,0 2.89063,0.5664 1.32812,0.5469 2.24609,1.6016 1.42578,1.6406 1.42578,4.1016 z m 8.55469,-0.7618 q -0.13672,-1.9531 -0.72266,-3.0078 -0.52734,-0.957 -1.40625,-1.5039 -0.87891,-0.5664 -1.875,-0.5664 -1.67969,0 -2.94922,1.4453 -1.25,1.4453 -1.48437,3.6328 z"
             id="path33522-7-6-6-5"
             style="color:#000000;-inkscape-font-specification:'Baskerville Old Face';fill-opacity:1;stroke:none;stroke-width:2.73324;stroke-miterlimit:4;stroke-dasharray:none;stroke-opacity:1;fill:#ffffff" />
          <path
             d="m -234.16797,2020.5996 c -2.05646,0 -3.92048,0.6481 -5.52539,1.9238 -2.20806,1.7555 -3.33398,4.2382 -3.33398,7.2871 0,2.2343 0.58272,4.1657 1.75976,5.7305 h 0.002 c 0.84058,1.1162 1.88153,1.9576 3.10546,2.5 1.22473,0.5428 2.66982,0.8047 4.32422,0.8047 1.91821,0 3.50484,-0.3996 4.71875,-1.2422 1.22547,-0.855 2.03068,-2.14 2.39063,-3.7597 l 0.0957,-0.4336 -1.28711,-0.4493 -0.16211,0.4786 c -0.32351,0.958 -0.70349,1.6183 -1.08398,1.9882 h -0.004 -0.002 c -0.35959,0.3596 -0.81932,0.6459 -1.40039,0.8594 h -0.002 -0.002 c -0.56728,0.2128 -1.16885,0.3203 -1.8164,0.3203 -0.87618,0 -1.70808,-0.1911 -2.51563,-0.5761 -0.79648,-0.3862 -1.45579,-0.9097 -1.99609,-1.5821 -0.52471,-0.6562 -0.95583,-1.495 -1.2793,-2.5254 v 0 c -5e-4,0 -0.001,0 -0.002,0 -0.31043,-1.0327 -0.46485,-2.0871 -0.46485,-3.1699 0,-0.1688 0.0287,-0.5507 0.0508,-0.8868 h 11.49219 v -0.5 c 0,-1.7372 -0.51711,-3.2425 -1.54883,-4.4296 -0.66167,-0.7603 -1.4802,-1.3422 -2.43164,-1.7344 -0.94954,-0.4044 -1.98129,-0.6055 -3.08203,-0.6055 z m 1.78711,1.0703 0.008,0.01 c -0.001,-7e-4 -0.003,7e-4 -0.004,0 -0.002,0 -0.002,0 -0.004,-0.01 z m 0.31836,0.3399 c 0.18665,0.06 0.41031,0.039 0.58984,0.1152 h 0.002 0.004 c 0.81828,0.3369 1.49692,0.8234 2.0586,1.4687 0.76542,0.8807 1.13327,1.9791 1.22461,3.2734 h -1.8125 l -0.0215,-0.2968 c -0.0941,-1.3447 -0.33745,-2.4118 -0.7832,-3.2149 v 0 c -0.31038,-0.5629 -0.77719,-0.9675 -1.26172,-1.3457 z m -2.45703,0.019 c 0.56929,0 1.08987,0.1553 1.60351,0.4863 h 0.004 0.004 c 0.51295,0.3192 0.9181,0.7499 1.23242,1.3203 v 0 c 0.27099,0.4878 0.41914,1.347 0.53516,2.2656 h -7.18165 c 0.20309,-1.1022 0.58152,-2.0531 1.22852,-2.8027 h 0.004 c 3.6e-4,-4e-4 -3.7e-4,0 0,0 0.773,-0.8781 1.59565,-1.2715 2.57031,-1.2715 z m -3.21875,0.5332 c -0.032,0.035 -0.074,0.046 -0.10547,0.082 h -0.002 -0.002 c -0.90486,1.0462 -1.43848,2.3659 -1.60351,3.9062 l -0.0332,0.3164 h -0.0469 l -0.0371,0.459 c -0.0526,0.6441 -0.0801,1.111 -0.0801,1.4278 0,1.1807 0.17034,2.3379 0.50977,3.4648 v 0 h 0.002 c 0.35318,1.1275 0.83358,2.085 1.45313,2.8594 0.63157,0.786 1.41758,1.4083 2.33984,1.8555 h 0.002 0.002 c 0.93611,0.4471 1.92563,0.6738 2.94922,0.6738 0.48251,0 0.92545,-0.1407 1.3789,-0.2441 -0.80419,0.2804 -1.70611,0.4746 -2.82422,0.4746 -1.54871,0 -2.85102,-0.2459 -3.91797,-0.7187 -1.06773,-0.4732 -1.96492,-1.1944 -2.71289,-2.1875 -1.03649,-1.378 -1.56054,-3.0664 -1.56054,-5.129 0,-2.8104 0.97044,-4.926 2.95507,-6.5039 0.41831,-0.3325 0.88541,-0.5094 1.33399,-0.7441 z"
             id="path33524-5-46-5-8"
             style="color:#000000;-inkscape-font-specification:'Baskerville Old Face';fill-opacity:1;stroke:none;stroke-width:2.73324;stroke-miterlimit:4;stroke-dasharray:none;stroke-opacity:1;fill:#ffffff" />
        </g>
      </g>
    </g>
  </g>
</svg>
